<?xml version="1.0" encoding="UTF-8"?>
<svg width="128" height="128" viewBox="0 0 128 128" xmlns="http://www.w3.org/2000/svg">
  <rect width="128" height="128" rx="24" fill="#2196F3"/>
  <g transform="translate(32, 32)" fill="white">
    <circle cx="32" cy="32" r="8"/>
    <path d="M0,32 C0,14.3 14.3,0 32,0 C49.7,0 64,14.3 64,32 L64,64 C64,81.7 49.7,96 32,96 C14.3,96 0,81.7 0,64 L0,32 Z" fill="white"/>
    <path d="M0,64 C0,46.3 14.3,32 32,32 C49.7,32 64,46.3 64,64 C64,81.7 49.7,96 32,96 C14.3,96 0,81.7 0,64 Z" fill="white" opacity="0.7"/>
  </g>
</svg> 